<?xml version="1.0" encoding="UTF-8" standalone="no"?>
<!DOCTYPE svg PUBLIC "-//W3C//DTD SVG 1.1//EN"
 "http://www.w3.org/Graphics/SVG/1.1/DTD/svg11.dtd">
<!-- Generated by graphviz version 2.43.0 (0)
 -->
<!-- Title: %3 Pages: 1 -->
<svg width="2578pt" height="404pt"
 viewBox="0.00 0.00 2578.11 404.00" xmlns="http://www.w3.org/2000/svg" xmlns:xlink="http://www.w3.org/1999/xlink">
<g id="graph0" class="graph" transform="scale(1 1) rotate(0) translate(4 400)">
<title>%3</title>
<polygon fill="white" stroke="transparent" points="-4,4 -4,-400 2574.11,-400 2574.11,4 -4,4"/>
<!-- [root] aws_instance.example (expand) -->
<g id="node1" class="node">
<title>[root] aws_instance.example (expand)</title>
<polygon fill="none" stroke="black" points="769.14,-252 593.14,-252 593.14,-216 769.14,-216 769.14,-252"/>
<text text-anchor="middle" x="681.14" y="-230.3" font-family="Times,serif" font-size="14.00">aws_instance.example</text>
</g>
<!-- [root] aws_key_pair.generated_key (expand) -->
<g id="node2" class="node">
<title>[root] aws_key_pair.generated_key (expand)</title>
<polygon fill="none" stroke="black" points="1045.14,-180 827.14,-180 827.14,-144 1045.14,-144 1045.14,-180"/>
<text text-anchor="middle" x="936.14" y="-158.3" font-family="Times,serif" font-size="14.00">aws_key_pair.generated_key</text>
</g>
<!-- [root] aws_instance.example (expand)&#45;&gt;[root] aws_key_pair.generated_key (expand) -->
<g id="edge1" class="edge">
<title>[root] aws_instance.example (expand)&#45;&gt;[root] aws_key_pair.generated_key (expand)</title>
<path fill="none" stroke="black" d="M743.19,-215.97C779.59,-205.97 825.76,-193.3 863.81,-182.85"/>
<polygon fill="black" stroke="black" points="865.09,-186.13 873.8,-180.11 863.23,-179.38 865.09,-186.13"/>
</g>
<!-- [root] aws_security_group.secgroup&#45;ssh (expand) -->
<g id="node3" class="node">
<title>[root] aws_security_group.secgroup&#45;ssh (expand)</title>
<polygon fill="none" stroke="black" points="809.14,-180 553.14,-180 553.14,-144 809.14,-144 809.14,-180"/>
<text text-anchor="middle" x="681.14" y="-158.3" font-family="Times,serif" font-size="14.00">aws_security_group.secgroup&#45;ssh</text>
</g>
<!-- [root] aws_instance.example (expand)&#45;&gt;[root] aws_security_group.secgroup&#45;ssh (expand) -->
<g id="edge2" class="edge">
<title>[root] aws_instance.example (expand)&#45;&gt;[root] aws_security_group.secgroup&#45;ssh (expand)</title>
<path fill="none" stroke="black" d="M681.14,-215.7C681.14,-207.98 681.14,-198.71 681.14,-190.11"/>
<polygon fill="black" stroke="black" points="684.64,-190.1 681.14,-180.1 677.64,-190.1 684.64,-190.1"/>
</g>
<!-- [root] var.ami_instance -->
<g id="node9" class="node">
<title>[root] var.ami_instance</title>
<polygon fill="none" stroke="black" points="529.14,-180 399.14,-180 399.14,-144 535.14,-144 535.14,-174 529.14,-180"/>
<polyline fill="none" stroke="black" points="529.14,-180 529.14,-174 "/>
<polyline fill="none" stroke="black" points="535.14,-174 529.14,-174 "/>
<text text-anchor="middle" x="467.14" y="-158.3" font-family="Times,serif" font-size="14.00">var.ami_instance</text>
</g>
<!-- [root] aws_instance.example (expand)&#45;&gt;[root] var.ami_instance -->
<g id="edge3" class="edge">
<title>[root] aws_instance.example (expand)&#45;&gt;[root] var.ami_instance</title>
<path fill="none" stroke="black" d="M629.06,-215.97C598.9,-206.1 560.75,-193.62 529.06,-183.25"/>
<polygon fill="black" stroke="black" points="530.04,-179.89 519.45,-180.11 527.86,-186.55 530.04,-179.89"/>
</g>
<!-- [root] provider[&quot;registry.terraform.io/hashicorp/aws&quot;] -->
<g id="node5" class="node">
<title>[root] provider[&quot;registry.terraform.io/hashicorp/aws&quot;]</title>
<polygon fill="none" stroke="black" points="681.14,-108 355.87,-90 681.14,-72 1006.4,-90 681.14,-108"/>
<text text-anchor="middle" x="681.14" y="-86.3" font-family="Times,serif" font-size="14.00">provider[&quot;registry.terraform.io/hashicorp/aws&quot;]</text>
</g>
<!-- [root] aws_key_pair.generated_key (expand)&#45;&gt;[root] provider[&quot;registry.terraform.io/hashicorp/aws&quot;] -->
<g id="edge4" class="edge">
<title>[root] aws_key_pair.generated_key (expand)&#45;&gt;[root] provider[&quot;registry.terraform.io/hashicorp/aws&quot;]</title>
<path fill="none" stroke="black" d="M874.08,-143.97C834.13,-133 782.4,-118.8 742.57,-107.86"/>
<polygon fill="black" stroke="black" points="743.28,-104.43 732.71,-105.16 741.43,-111.18 743.28,-104.43"/>
</g>
<!-- [root] var.key_name -->
<g id="node10" class="node">
<title>[root] var.key_name</title>
<polygon fill="none" stroke="black" points="1131.64,-108 1024.64,-108 1024.64,-72 1137.64,-72 1137.64,-102 1131.64,-108"/>
<polyline fill="none" stroke="black" points="1131.64,-108 1131.64,-102 "/>
<polyline fill="none" stroke="black" points="1137.64,-102 1131.64,-102 "/>
<text text-anchor="middle" x="1081.14" y="-86.3" font-family="Times,serif" font-size="14.00">var.key_name</text>
</g>
<!-- [root] aws_key_pair.generated_key (expand)&#45;&gt;[root] var.key_name -->
<g id="edge5" class="edge">
<title>[root] aws_key_pair.generated_key (expand)&#45;&gt;[root] var.key_name</title>
<path fill="none" stroke="black" d="M971.61,-143.88C991.25,-134.39 1015.86,-122.51 1036.77,-112.42"/>
<polygon fill="black" stroke="black" points="1038.3,-115.57 1045.78,-108.07 1035.25,-109.26 1038.3,-115.57"/>
</g>
<!-- [root] aws_security_group.secgroup&#45;ssh (expand)&#45;&gt;[root] provider[&quot;registry.terraform.io/hashicorp/aws&quot;] -->
<g id="edge6" class="edge">
<title>[root] aws_security_group.secgroup&#45;ssh (expand)&#45;&gt;[root] provider[&quot;registry.terraform.io/hashicorp/aws&quot;]</title>
<path fill="none" stroke="black" d="M681.14,-143.7C681.14,-135.98 681.14,-126.71 681.14,-118.11"/>
<polygon fill="black" stroke="black" points="684.64,-118.1 681.14,-108.1 677.64,-118.1 684.64,-118.1"/>
</g>
<!-- [root] local_file.pem_key (expand) -->
<g id="node4" class="node">
<title>[root] local_file.pem_key (expand)</title>
<polygon fill="none" stroke="black" points="2312.64,-252 2167.64,-252 2167.64,-216 2312.64,-216 2312.64,-252"/>
<text text-anchor="middle" x="2240.14" y="-230.3" font-family="Times,serif" font-size="14.00">local_file.pem_key</text>
</g>
<!-- [root] provider[&quot;registry.terraform.io/hashicorp/local&quot;] -->
<g id="node6" class="node">
<title>[root] provider[&quot;registry.terraform.io/hashicorp/local&quot;]</title>
<polygon fill="none" stroke="black" points="2240.14,-180 1910.18,-162 2240.14,-144 2570.09,-162 2240.14,-180"/>
<text text-anchor="middle" x="2240.14" y="-158.3" font-family="Times,serif" font-size="14.00">provider[&quot;registry.terraform.io/hashicorp/local&quot;]</text>
</g>
<!-- [root] local_file.pem_key (expand)&#45;&gt;[root] provider[&quot;registry.terraform.io/hashicorp/local&quot;] -->
<g id="edge7" class="edge">
<title>[root] local_file.pem_key (expand)&#45;&gt;[root] provider[&quot;registry.terraform.io/hashicorp/local&quot;]</title>
<path fill="none" stroke="black" d="M2240.14,-215.7C2240.14,-207.98 2240.14,-198.71 2240.14,-190.11"/>
<polygon fill="black" stroke="black" points="2243.64,-190.1 2240.14,-180.1 2236.64,-190.1 2243.64,-190.1"/>
</g>
<!-- [root] tls_private_key.mykey (expand) -->
<g id="node8" class="node">
<title>[root] tls_private_key.mykey (expand)</title>
<polygon fill="none" stroke="black" points="1725.64,-180 1552.64,-180 1552.64,-144 1725.64,-144 1725.64,-180"/>
<text text-anchor="middle" x="1639.14" y="-158.3" font-family="Times,serif" font-size="14.00">tls_private_key.mykey</text>
</g>
<!-- [root] local_file.pem_key (expand)&#45;&gt;[root] tls_private_key.mykey (expand) -->
<g id="edge8" class="edge">
<title>[root] local_file.pem_key (expand)&#45;&gt;[root] tls_private_key.mykey (expand)</title>
<path fill="none" stroke="black" d="M2167.34,-217.35C2164.58,-216.87 2161.83,-216.42 2159.14,-216 2012.48,-193.2 1840.97,-177.9 1736.22,-169.82"/>
<polygon fill="black" stroke="black" points="1736.22,-166.31 1725.98,-169.04 1735.68,-173.29 1736.22,-166.31"/>
</g>
<!-- [root] var.region -->
<g id="node11" class="node">
<title>[root] var.region</title>
<polygon fill="none" stroke="black" points="719.64,-36 636.64,-36 636.64,0 725.64,0 725.64,-30 719.64,-36"/>
<polyline fill="none" stroke="black" points="719.64,-36 719.64,-30 "/>
<polyline fill="none" stroke="black" points="725.64,-30 719.64,-30 "/>
<text text-anchor="middle" x="681.14" y="-14.3" font-family="Times,serif" font-size="14.00">var.region</text>
</g>
<!-- [root] provider[&quot;registry.terraform.io/hashicorp/aws&quot;]&#45;&gt;[root] var.region -->
<g id="edge15" class="edge">
<title>[root] provider[&quot;registry.terraform.io/hashicorp/aws&quot;]&#45;&gt;[root] var.region</title>
<path fill="none" stroke="black" d="M681.14,-71.7C681.14,-63.98 681.14,-54.71 681.14,-46.11"/>
<polygon fill="black" stroke="black" points="684.64,-46.1 681.14,-36.1 677.64,-46.1 684.64,-46.1"/>
</g>
<!-- [root] provider[&quot;registry.terraform.io/hashicorp/tls&quot;] -->
<g id="node7" class="node">
<title>[root] provider[&quot;registry.terraform.io/hashicorp/tls&quot;]</title>
<polygon fill="none" stroke="black" points="1639.14,-108 1322.76,-90 1639.14,-72 1955.52,-90 1639.14,-108"/>
<text text-anchor="middle" x="1639.14" y="-86.3" font-family="Times,serif" font-size="14.00">provider[&quot;registry.terraform.io/hashicorp/tls&quot;]</text>
</g>
<!-- [root] tls_private_key.mykey (expand)&#45;&gt;[root] provider[&quot;registry.terraform.io/hashicorp/tls&quot;] -->
<g id="edge26" class="edge">
<title>[root] tls_private_key.mykey (expand)&#45;&gt;[root] provider[&quot;registry.terraform.io/hashicorp/tls&quot;]</title>
<path fill="none" stroke="black" d="M1639.14,-143.7C1639.14,-135.98 1639.14,-126.71 1639.14,-118.11"/>
<polygon fill="black" stroke="black" points="1642.64,-118.1 1639.14,-108.1 1635.64,-118.1 1642.64,-118.1"/>
</g>
<!-- [root] output.private_ip (expand) -->
<g id="node12" class="node">
<title>[root] output.private_ip (expand)</title>
<ellipse fill="none" stroke="black" cx="163.14" cy="-306" rx="163.27" ry="18"/>
<text text-anchor="middle" x="163.14" y="-302.3" font-family="Times,serif" font-size="14.00">[root] output.private_ip (expand)</text>
</g>
<!-- [root] output.private_ip (expand)&#45;&gt;[root] aws_instance.example (expand) -->
<g id="edge9" class="edge">
<title>[root] output.private_ip (expand)&#45;&gt;[root] aws_instance.example (expand)</title>
<path fill="none" stroke="black" d="M262.09,-291.63C354.22,-279.18 490.79,-260.72 582.74,-248.3"/>
<polygon fill="black" stroke="black" points="583.45,-251.73 592.89,-246.93 582.51,-244.8 583.45,-251.73"/>
</g>
<!-- [root] output.public_dns (expand) -->
<g id="node13" class="node">
<title>[root] output.public_dns (expand)</title>
<ellipse fill="none" stroke="black" cx="510.14" cy="-306" rx="165.97" ry="18"/>
<text text-anchor="middle" x="510.14" y="-302.3" font-family="Times,serif" font-size="14.00">[root] output.public_dns (expand)</text>
</g>
<!-- [root] output.public_dns (expand)&#45;&gt;[root] aws_instance.example (expand) -->
<g id="edge10" class="edge">
<title>[root] output.public_dns (expand)&#45;&gt;[root] aws_instance.example (expand)</title>
<path fill="none" stroke="black" d="M550.66,-288.41C574.39,-278.7 604.59,-266.33 629.95,-255.95"/>
<polygon fill="black" stroke="black" points="631.49,-259.11 639.42,-252.08 628.83,-252.63 631.49,-259.11"/>
</g>
<!-- [root] output.public_ip (expand) -->
<g id="node14" class="node">
<title>[root] output.public_ip (expand)</title>
<ellipse fill="none" stroke="black" cx="852.14" cy="-306" rx="157.87" ry="18"/>
<text text-anchor="middle" x="852.14" y="-302.3" font-family="Times,serif" font-size="14.00">[root] output.public_ip (expand)</text>
</g>
<!-- [root] output.public_ip (expand)&#45;&gt;[root] aws_instance.example (expand) -->
<g id="edge11" class="edge">
<title>[root] output.public_ip (expand)&#45;&gt;[root] aws_instance.example (expand)</title>
<path fill="none" stroke="black" d="M812.04,-288.59C788.23,-278.84 757.81,-266.39 732.28,-255.94"/>
<polygon fill="black" stroke="black" points="733.34,-252.59 722.76,-252.04 730.69,-259.07 733.34,-252.59"/>
</g>
<!-- [root] output.ssh_pem_key (expand) -->
<g id="node15" class="node">
<title>[root] output.ssh_pem_key (expand)</title>
<ellipse fill="none" stroke="black" cx="977.14" cy="-234" rx="176.57" ry="18"/>
<text text-anchor="middle" x="977.14" y="-230.3" font-family="Times,serif" font-size="14.00">[root] output.ssh_pem_key (expand)</text>
</g>
<!-- [root] output.ssh_pem_key (expand)&#45;&gt;[root] tls_private_key.mykey (expand) -->
<g id="edge12" class="edge">
<title>[root] output.ssh_pem_key (expand)&#45;&gt;[root] tls_private_key.mykey (expand)</title>
<path fill="none" stroke="black" d="M1095.11,-220.53C1222.61,-207.04 1423.44,-185.81 1542.12,-173.26"/>
<polygon fill="black" stroke="black" points="1542.71,-176.72 1552.29,-172.18 1541.98,-169.75 1542.71,-176.72"/>
</g>
<!-- [root] output.ssh_rsa_pub_key (expand) -->
<g id="node16" class="node">
<title>[root] output.ssh_rsa_pub_key (expand)</title>
<ellipse fill="none" stroke="black" cx="1956.14" cy="-234" rx="193.87" ry="18"/>
<text text-anchor="middle" x="1956.14" y="-230.3" font-family="Times,serif" font-size="14.00">[root] output.ssh_rsa_pub_key (expand)</text>
</g>
<!-- [root] output.ssh_rsa_pub_key (expand)&#45;&gt;[root] tls_private_key.mykey (expand) -->
<g id="edge13" class="edge">
<title>[root] output.ssh_rsa_pub_key (expand)&#45;&gt;[root] tls_private_key.mykey (expand)</title>
<path fill="none" stroke="black" d="M1884.6,-217.2C1837.61,-206.83 1775.84,-193.19 1726.03,-182.19"/>
<polygon fill="black" stroke="black" points="1726.75,-178.76 1716.23,-180.02 1725.24,-185.6 1726.75,-178.76"/>
</g>
<!-- [root] provider[&quot;registry.terraform.io/hashicorp/aws&quot;] (close) -->
<g id="node17" class="node">
<title>[root] provider[&quot;registry.terraform.io/hashicorp/aws&quot;] (close)</title>
<ellipse fill="none" stroke="black" cx="1320.14" cy="-306" rx="291.65" ry="18"/>
<text text-anchor="middle" x="1320.14" y="-302.3" font-family="Times,serif" font-size="14.00">[root] provider[&quot;registry.terraform.io/hashicorp/aws&quot;] (close)</text>
</g>
<!-- [root] provider[&quot;registry.terraform.io/hashicorp/aws&quot;] (close)&#45;&gt;[root] aws_instance.example (expand) -->
<g id="edge14" class="edge">
<title>[root] provider[&quot;registry.terraform.io/hashicorp/aws&quot;] (close)&#45;&gt;[root] aws_instance.example (expand)</title>
<path fill="none" stroke="black" d="M1158.11,-291.03C1053.28,-281.43 913.94,-267.63 791.14,-252 787.26,-251.51 783.3,-250.98 779.31,-250.44"/>
<polygon fill="black" stroke="black" points="779.72,-246.97 769.33,-249.06 778.76,-253.9 779.72,-246.97"/>
</g>
<!-- [root] provider[&quot;registry.terraform.io/hashicorp/local&quot;] (close) -->
<g id="node18" class="node">
<title>[root] provider[&quot;registry.terraform.io/hashicorp/local&quot;] (close)</title>
<ellipse fill="none" stroke="black" cx="2144.14" cy="-306" rx="295.95" ry="18"/>
<text text-anchor="middle" x="2144.14" y="-302.3" font-family="Times,serif" font-size="14.00">[root] provider[&quot;registry.terraform.io/hashicorp/local&quot;] (close)</text>
</g>
<!-- [root] provider[&quot;registry.terraform.io/hashicorp/local&quot;] (close)&#45;&gt;[root] local_file.pem_key (expand) -->
<g id="edge16" class="edge">
<title>[root] provider[&quot;registry.terraform.io/hashicorp/local&quot;] (close)&#45;&gt;[root] local_file.pem_key (expand)</title>
<path fill="none" stroke="black" d="M2167.37,-288.05C2179.78,-279.01 2195.23,-267.74 2208.69,-257.93"/>
<polygon fill="black" stroke="black" points="2210.76,-260.75 2216.78,-252.03 2206.64,-255.1 2210.76,-260.75"/>
</g>
<!-- [root] provider[&quot;registry.terraform.io/hashicorp/tls&quot;] (close) -->
<g id="node19" class="node">
<title>[root] provider[&quot;registry.terraform.io/hashicorp/tls&quot;] (close)</title>
<ellipse fill="none" stroke="black" cx="1458.14" cy="-234" rx="285.95" ry="18"/>
<text text-anchor="middle" x="1458.14" y="-230.3" font-family="Times,serif" font-size="14.00">[root] provider[&quot;registry.terraform.io/hashicorp/tls&quot;] (close)</text>
</g>
<!-- [root] provider[&quot;registry.terraform.io/hashicorp/tls&quot;] (close)&#45;&gt;[root] tls_private_key.mykey (expand) -->
<g id="edge17" class="edge">
<title>[root] provider[&quot;registry.terraform.io/hashicorp/tls&quot;] (close)&#45;&gt;[root] tls_private_key.mykey (expand)</title>
<path fill="none" stroke="black" d="M1501.95,-216.05C1527.11,-206.33 1558.9,-194.03 1585.54,-183.73"/>
<polygon fill="black" stroke="black" points="1587.03,-186.9 1595.1,-180.03 1584.51,-180.37 1587.03,-186.9"/>
</g>
<!-- [root] root -->
<g id="node20" class="node">
<title>[root] root</title>
<ellipse fill="none" stroke="black" cx="1480.14" cy="-378" rx="58.49" ry="18"/>
<text text-anchor="middle" x="1480.14" y="-374.3" font-family="Times,serif" font-size="14.00">[root] root</text>
</g>
<!-- [root] root&#45;&gt;[root] output.private_ip (expand) -->
<g id="edge18" class="edge">
<title>[root] root&#45;&gt;[root] output.private_ip (expand)</title>
<path fill="none" stroke="black" d="M1421.99,-375.38C1253.61,-370.47 751.19,-354.17 335.14,-324 319.4,-322.86 302.87,-321.47 286.54,-319.98"/>
<polygon fill="black" stroke="black" points="286.68,-316.48 276.4,-319.04 286.04,-323.45 286.68,-316.48"/>
</g>
<!-- [root] root&#45;&gt;[root] output.public_dns (expand) -->
<g id="edge19" class="edge">
<title>[root] root&#45;&gt;[root] output.public_dns (expand)</title>
<path fill="none" stroke="black" d="M1423.22,-373.8C1292.65,-366.32 961.56,-346.63 685.14,-324 669.52,-322.72 653.12,-321.27 636.89,-319.77"/>
<polygon fill="black" stroke="black" points="637.1,-316.27 626.82,-318.83 636.45,-323.24 637.1,-316.27"/>
</g>
<!-- [root] root&#45;&gt;[root] output.public_ip (expand) -->
<g id="edge20" class="edge">
<title>[root] root&#45;&gt;[root] output.public_ip (expand)</title>
<path fill="none" stroke="black" d="M1426.05,-370.97C1325.4,-359.75 1107.22,-335.43 970.75,-320.22"/>
<polygon fill="black" stroke="black" points="970.98,-316.73 960.66,-319.1 970.21,-323.68 970.98,-316.73"/>
</g>
<!-- [root] root&#45;&gt;[root] output.ssh_pem_key (expand) -->
<g id="edge21" class="edge">
<title>[root] root&#45;&gt;[root] output.ssh_pem_key (expand)</title>
<path fill="none" stroke="black" d="M1525.71,-366.6C1578.79,-352.49 1655.13,-324.77 1621.14,-288 1586.48,-250.52 1214,-256.32 1163.14,-252 1146.8,-250.61 1129.65,-249.11 1112.66,-247.59"/>
<polygon fill="black" stroke="black" points="1112.95,-244.1 1102.68,-246.69 1112.33,-251.07 1112.95,-244.1"/>
</g>
<!-- [root] root&#45;&gt;[root] output.ssh_rsa_pub_key (expand) -->
<g id="edge22" class="edge">
<title>[root] root&#45;&gt;[root] output.ssh_rsa_pub_key (expand)</title>
<path fill="none" stroke="black" d="M1522.73,-365.6C1561.51,-355.12 1620.3,-338.99 1671.14,-324 1748.92,-301.07 1838.08,-272.93 1895.65,-254.51"/>
<polygon fill="black" stroke="black" points="1896.86,-257.79 1905.32,-251.41 1894.73,-251.13 1896.86,-257.79"/>
</g>
<!-- [root] root&#45;&gt;[root] provider[&quot;registry.terraform.io/hashicorp/aws&quot;] (close) -->
<g id="edge23" class="edge">
<title>[root] root&#45;&gt;[root] provider[&quot;registry.terraform.io/hashicorp/aws&quot;] (close)</title>
<path fill="none" stroke="black" d="M1447.76,-362.83C1424.82,-352.8 1393.68,-339.18 1367.9,-327.9"/>
<polygon fill="black" stroke="black" points="1369.23,-324.66 1358.67,-323.86 1366.43,-331.07 1369.23,-324.66"/>
</g>
<!-- [root] root&#45;&gt;[root] provider[&quot;registry.terraform.io/hashicorp/local&quot;] (close) -->
<g id="edge24" class="edge">
<title>[root] root&#45;&gt;[root] provider[&quot;registry.terraform.io/hashicorp/local&quot;] (close)</title>
<path fill="none" stroke="black" d="M1534.47,-371.27C1633.63,-360.82 1847.15,-338.31 1993.25,-322.91"/>
<polygon fill="black" stroke="black" points="1993.63,-326.39 2003.21,-321.86 1992.9,-319.42 1993.63,-326.39"/>
</g>
<!-- [root] root&#45;&gt;[root] provider[&quot;registry.terraform.io/hashicorp/tls&quot;] (close) -->
<g id="edge25" class="edge">
<title>[root] root&#45;&gt;[root] provider[&quot;registry.terraform.io/hashicorp/tls&quot;] (close)</title>
<path fill="none" stroke="black" d="M1532.76,-369.98C1596.2,-359.29 1690.13,-335.01 1654.14,-288 1642.83,-273.23 1607.51,-261.62 1569.92,-253.09"/>
<polygon fill="black" stroke="black" points="1570.32,-249.59 1559.8,-250.88 1568.82,-256.43 1570.32,-249.59"/>
</g>
</g>
</svg>
